<?xml version="1.0" encoding="utf-8"?>
<!-- Generator: Adobe Illustrator 27.0.0, SVG Export Plug-In . SVG Version: 6.00 Build 0)  -->
<svg version="1.1" id="레이어_1" xmlns="http://www.w3.org/2000/svg" xmlns:xlink="http://www.w3.org/1999/xlink" x="0px"
	 y="0px" viewBox="0 0 40 40" style="enable-background:new 0 0 40 40;" xml:space="preserve">
<style type="text/css">
	.st0{fill:#FFffff;}
</style>
<g>
	<path class="st0" d="M12.22,38.41c-0.9,0-1.66-0.31-2.29-0.94c-0.63-0.63-0.94-1.39-0.94-2.29s0.31-1.66,0.94-2.29
		c0.63-0.63,1.39-0.94,2.29-0.94c0.87,0,1.62,0.31,2.26,0.94c0.64,0.63,0.96,1.39,0.96,2.29s-0.31,1.66-0.94,2.29
		C13.88,38.09,13.12,38.41,12.22,38.41z M30.16,38.41c-0.9,0-1.66-0.31-2.29-0.94c-0.63-0.63-0.94-1.39-0.94-2.29
		s0.31-1.66,0.94-2.29c0.63-0.63,1.39-0.94,2.29-0.94c0.87,0,1.62,0.31,2.26,0.94c0.64,0.63,0.96,1.39,0.96,2.29
		s-0.31,1.66-0.94,2.29C31.82,38.09,31.05,38.41,30.16,38.41z M5.94,29.08l5.43-9.86L4.82,5.27H1.14V1.59H7.2l1.66,3.54h30
		l-8.79,16.1h-15.6l-2.2,4.17h21.61v3.68H5.94z"/>
</g>
<g>
	<g>
		<path d="M85.25,40c-0.9,0-1.66-0.31-2.29-0.94c-0.63-0.63-0.94-1.39-0.94-2.29s0.31-1.66,0.94-2.29s1.39-0.94,2.29-0.94
			c0.87,0,1.62,0.31,2.26,0.94s0.96,1.39,0.96,2.29s-0.31,1.66-0.94,2.29C86.91,39.68,86.15,40,85.25,40z M103.19,40
			c-0.9,0-1.66-0.31-2.29-0.94c-0.63-0.63-0.94-1.39-0.94-2.29s0.31-1.66,0.94-2.29c0.63-0.63,1.39-0.94,2.29-0.94
			c0.87,0,1.62,0.31,2.26,0.94s0.96,1.39,0.96,2.29s-0.31,1.66-0.94,2.29C104.85,39.68,104.08,40,103.19,40z M78.97,30.67l5.43-9.86
			L77.85,6.86h-3.68V3.18h6.06l1.66,3.54h30l-8.79,16.1H87.5l-2.2,4.17h21.61v3.68H78.97z"/>
	</g>
</g>
</svg>
